<svg width="114" height="151" xmlns="http://www.w3.org/2000/svg"><defs><linearGradient x1="95.459%" y1="159.883%" x2="25.632%" y2="-8.899%" id="a"><stop stop-color="#F9B215" offset="0%"/><stop stop-color="#DE5F60" offset="100%"/></linearGradient><linearGradient x1="61.018%" y1="96.54%" x2="33.696%" y2="9.375%" id="b"><stop stop-color="#F9B215" offset="0%"/><stop stop-color="#DE5F60" offset="100%"/></linearGradient></defs><g fill-rule="nonzero" fill="none"><path d="M96.016 54.357c0-21.5-17.43-38.99-38.851-38.99s-38.853 17.49-38.853 38.99c0 21.5 17.43 38.991 38.853 38.991 21.423 0 38.85-17.491 38.85-38.991zM57.165 89.964c-19.565 0-35.48-15.974-35.48-35.607 0-19.634 15.915-35.608 35.48-35.608 19.565 0 35.478 15.974 35.478 35.608 0 19.633-15.921 35.607-35.478 35.607z" fill="url(#a)"/><path d="M90.044 91.575l8.055-1.626.486-8.875 7.846-4.137-2.024-8.658 6.368-6.186-4.374-7.736 4.374-7.737-6.366-6.192 2.024-8.658-7.848-4.129-.486-8.88-8.69-1.75-2.97-8.383-8.82.778-5.195-7.204-8.253 3.243L57.165 0l-7.008 5.445-8.253-3.243-5.195 7.204-8.828-.778-2.962 8.382-8.688 1.751-.49 8.88-7.846 4.135 2.024 8.652-6.366 6.192 4.372 7.737-4.372 7.736 6.366 6.186-2.024 8.658 7.846 4.137.49 8.88 7.757 1.562L0 135.387l20.367-3.518L28.34 151l24.828-45.391 3.996 3.104 3.765-2.925L85.651 151l7.982-19.131L114 135.387 90.044 91.575zm-61.286 51.65l-6.318-15.139-16.118 2.777 19.703-36.036 1.856 5.258 8.828-.778 5.195 7.206 8.25-3.25.312.243-21.708 39.72zM50.709 99.42l-7.603 2.986-4.785-6.637-8.134.717-2.729-7.72-8.004-1.61-.452-8.182-7.226-3.805 1.864-7.978-5.87-5.699 4.028-7.126-4.025-7.135 5.871-5.689-1.864-7.978 7.226-3.809.452-8.18 8.004-1.612 2.729-7.72 8.134.717L43.11 6.32l7.6 2.976 6.455-5.015 6.456 5.015 7.6-2.988 4.786 6.64 8.134-.718 2.729 7.72 8.004 1.611.452 8.181 7.228 3.81-1.864 7.977 5.87 5.689-4.028 7.126 4.029 7.127-5.871 5.699 1.864 7.998-7.228 3.8-.452 8.186-8.004 1.611-2.729 7.72-8.134-.717-4.785 6.637-7.601-2.986-6.456 5.016-6.456-5.016zm40.851 28.659l-6.318 15.147-21.613-39.534.542-.423 8.253 3.25 5.195-7.205 8.82.772 1.729-4.892 19.502 35.67-16.11-2.785z" fill="url(#b)"/></g></svg>