<svg id="Livello_1" data-name="Livello 1" xmlns="http://www.w3.org/2000/svg" width="80" height="80" viewBox="0 0 80 80">
  <defs>
    <style>
      .cls-1 {
        fill: #fff;
      }
    </style>
  </defs>
  <title>OVRlogo</title>
  <path class="cls-1" d="M76.15,20.63c0-.25,0-.5,0-.74s0-.28,0-.42a9.46,9.46,0,0,0-1.62-4.23l0,0-.05-.07h0l0,0,0,0c-.13-.18-.28-.36-.42-.53A9.44,9.44,0,0,0,70.38,12L43.66.73A9.48,9.48,0,0,0,40.17,0h-.28A9.28,9.28,0,0,0,36.4.73L9.66,11.9a9.49,9.49,0,0,0-4,3.17l0,.08,0,0a9.34,9.34,0,0,0-1.7,5.38l0,38.61a9.36,9.36,0,0,0,1.68,5.37.08.08,0,0,1,0,0l.06.07h0l0,0,0,0a9.28,9.28,0,0,0,3.9,3.11L36.28,79.25a9.41,9.41,0,0,0,3.55.75H40a9.32,9.32,0,0,0,3.68-.75L70.39,67.89A9.54,9.54,0,0,0,74.15,65l.16-.22h0l0,0h0l.06-.08,0,0a9.34,9.34,0,0,0,1.69-5.36ZM71,64.67l-.31.23-.06,0-.34.22-.07,0-.36.19-.06,0-.39.19L42.69,77l-.35.13-.11,0-.24.08-.14,0-.21.06-.15,0-.21,0h-.07V71a7.15,7.15,0,0,0,1.61-.5l19.51-8.75a6.59,6.59,0,0,0,1-.58l7.9,3.31-.21.18ZM37.25,77,10.53,65.57a7.06,7.06,0,0,1-1.84-1.16l5.15-2.15,2.75-1.15a7.07,7.07,0,0,0,1,.58l19.5,8.78a6.67,6.67,0,0,0,1.61.5v6.45A6.56,6.56,0,0,1,37.25,77ZM6.32,59.18l0-38.6a6.93,6.93,0,0,1,.8-3.23l7.56,3.23-.06.08A7.81,7.81,0,0,0,13.3,25l0,29.73a7.73,7.73,0,0,0,1.33,4.36.86.86,0,0,0,.07.1L7.11,62.4A6.88,6.88,0,0,1,6.32,59.18ZM9,15.16l0,0,.31-.23a.1.1,0,0,0,0,0l.35-.22.07,0,.36-.2.07,0,.39-.18L37.35,3l.34-.13.11,0L38,2.76l.14,0,.21-.05.15,0,.2,0h.06V9a7.3,7.3,0,0,0-1.57.48L17.71,18.11a7.09,7.09,0,0,0-1.08.6L8.74,15.34ZM41.32,2.59l.21.05.15,0,.21.06.14,0,.23.07.11,0,.34.13L69.43,14.23a3.39,3.39,0,0,1,.39.18l.07,0,.35.2.08,0,.34.22.06,0a3.55,3.55,0,0,1,.31.23l0,0,.21.18-7.88,3.35a7.54,7.54,0,0,0-1.08-.59L42.83,9.51A6.32,6.32,0,0,0,41.26,9V2.58ZM72.9,17.43l.17.34v0c0,.11.09.21.13.32l0,.07.12.35,0,.06.09.32V19c0,.12.06.24.08.36a.17.17,0,0,1,0,.07l.06.34v0a2.4,2.4,0,0,1,0,.37v.09c0,.13,0,.25,0,.38l0,38.61c0,.12,0,.25,0,.37v.09c0,.12,0,.25,0,.37v0c0,.11,0,.22,0,.34v.07c0,.12,0,.24-.08.36v.06l-.09.32,0,.06-.12.35,0,.06c0,.11-.08.21-.13.32v0c-.05.11-.11.22-.17.33v0l-7.57-3.18a.86.86,0,0,0,.07-.1,7.78,7.78,0,0,0,1.34-4.35l0-29.74a7.72,7.72,0,0,0-1.34-4.38l-.06-.08,5.34-2.28,2.23-.94ZM16.65,57.75a5.27,5.27,0,0,1-.9-3l0-29.74a5.22,5.22,0,0,1,.92-3,4.37,4.37,0,0,1,.37-.48L28.5,26.46a17.66,17.66,0,0,0,.11,26.95L17,58.25A4.78,4.78,0,0,1,16.65,57.75ZM63.34,22.1a5.21,5.21,0,0,1,.91,3l0,29.73a5.29,5.29,0,0,1-.91,3,4.66,4.66,0,0,1-.39.49L51.52,53.49l-.15-.06a17.66,17.66,0,0,0,.15-26.95L63,21.61A5.85,5.85,0,0,1,63.34,22.1Zm-22.1,6.06V24.72a15.3,15.3,0,0,1,5,1.3Zm-2.47,0-5-2.15a15.1,15.1,0,0,1,5-1.29Zm0,2.68V49.17l-3.88,1.62-3.65,1.53a15.21,15.21,0,0,1-.15-24.76Zm2.46,18.33V30.85l7.69-3.27a15.19,15.19,0,0,1-.18,24.75Zm-2.47,2.68v3.21A15.33,15.33,0,0,1,34,53.86Zm2.47,0,4.79,2a15.05,15.05,0,0,1-4.8,1.2Zm17.4-31.08-9.44,4a17.54,17.54,0,0,0-7.94-2.53V11.56a4.37,4.37,0,0,1,.57.21L60.43,20ZM38.78,22.24a17.58,17.58,0,0,0-8,2.53L19.6,20l18.62-8.21a3.49,3.49,0,0,1,.57-.2ZM31,55.1a17.52,17.52,0,0,0,7.77,2.43V68.44a4.19,4.19,0,0,1-.59-.22L19.58,59.86Zm10.24,2.43A17.55,17.55,0,0,0,49,55.11l11.39,4.78L41.81,68.23q-.3.12-.6.21Z"/>
</svg>
