<svg id="Livello_1" data-name="Livello 1" xmlns="http://www.w3.org/2000/svg" xmlns:xlink="http://www.w3.org/1999/xlink" viewBox="0 0 1024 1024">
  <defs>
    <style>
      .cls-1 {
        fill: url(#Sfumatura_senza_nome_92);
      }

      .cls-2 {
        fill: url(#Sfumatura_senza_nome_92-2);
      }

      .cls-3 {
        fill: url(#Sfumatura_senza_nome_92-3);
      }
    </style>
    <linearGradient id="Sfumatura_senza_nome_92" data-name="Sfumatura senza nome 92" x1="36.97102" y1="145.62628" x2="878.23248" y2="792.36182" gradientUnits="userSpaceOnUse">
      <stop offset="0.00119" stop-color="#f9b215"/>
      <stop offset="1" stop-color="#de5f60"/>
    </linearGradient>
    <linearGradient id="Sfumatura_senza_nome_92-2" x1="36.83905" y1="145.79794" x2="878.10051" y2="792.53348" xlink:href="#Sfumatura_senza_nome_92"/>
    <linearGradient id="Sfumatura_senza_nome_92-3" x1="36.39782" y1="146.37189" x2="877.65928" y2="793.10743" xlink:href="#Sfumatura_senza_nome_92"/>
  </defs>
  <title>icona-ovr</title>
  <path class="cls-1" d="M511.99951,1024a123.24553,123.24553,0,0,1-48.54554-9.905L124.38756,869.70005A123.924,123.924,0,0,1,49.02947,755.70049V265.92779a123.91949,123.91949,0,0,1,76.03579-114.28428L464.1297,9.62033a123.90569,123.90569,0,0,1,95.7411.001L898.93672,151.6445a123.917,123.917,0,0,1,76.03381,114.28329v489.7727a123.91991,123.91991,0,0,1-75.35809,113.99956L560.5485,1014.094A123.25638,123.25638,0,0,1,511.99951,1024Zm0-983.50584a82.97233,82.97233,0,0,0-32.22479,6.47649L140.70929,188.99383a83.42351,83.42351,0,0,0-51.18566,76.934v489.7727a83.427,83.427,0,0,0,50.72991,76.74217L479.31945,976.83755a83.42207,83.42207,0,0,0,65.36357,0L883.74646,832.44266a83.425,83.425,0,0,0,50.72991-76.74217V265.92779A82.91871,82.91871,0,0,0,918.71914,217.144l-.001-.001a83.34509,83.34509,0,0,0-35.42547-28.14819L544.22528,46.97065A82.9681,82.9681,0,0,0,511.99951,40.49416Z"/>
  <path class="cls-2" d="M511.99975,910.94952a91.98328,91.98328,0,0,1-37.941-8.16111L226.58612,791.58963a96.761,96.761,0,0,1-40.29445-34.02953A102.56592,102.56592,0,0,1,168.62441,699.676V322.498a102.53058,102.53058,0,0,1,17.8205-58.1105,96.682,96.682,0,0,1,40.66914-34.03744L474.58566,120.97729a92.26077,92.26077,0,0,1,74.82868,0l247.4726,109.37278a96.69522,96.69522,0,0,1,40.66717,34.03744l-.0005-.001a102.523,102.523,0,0,1,17.822,58.11149V699.676a102.56125,102.56125,0,0,1-17.66726,57.88411,96.755,96.755,0,0,1-40.295,34.02953L549.94128,902.78841A91.99063,91.99063,0,0,1,511.99975,910.94952Zm0-757.40488a51.74748,51.74748,0,0,0-21.0444,4.47057L243.48324,267.388a56.22744,56.22744,0,0,0-23.60347,19.84471,62.19973,62.19973,0,0,0-10.7612,35.26531V699.676a62.22542,62.22542,0,0,0,10.67025,35.13086,56.29225,56.29225,0,0,0,23.39487,19.8457l247.4721,111.19878a51.77886,51.77886,0,0,0,42.68891,0L780.81631,754.65255a56.2917,56.2917,0,0,0,23.39536-19.84669A62.221,62.221,0,0,0,814.88143,699.676V322.498a62.192,62.192,0,0,0-10.7612-35.26432l-.0005-.001a56.23312,56.23312,0,0,0-23.603-19.84471L533.04515,158.01521A51.75212,51.75212,0,0,0,511.99975,153.54464Z"/>
  <path class="cls-3" d="M512,740.97094a228.97167,228.97167,0,1,1,161.90694-67.0645A227.47017,227.47017,0,0,1,512,740.97094Zm0-417.44772c-103.92644,0-188.47678,84.55034-188.47678,188.47678S408.07356,700.47678,512,700.47678,700.47678,615.92644,700.47678,512,615.92644,323.52322,512,323.52322Z"/>
</svg>
