<svg width="161" height="151" xmlns="http://www.w3.org/2000/svg"><defs><linearGradient x1="109.212%" y1="78.912%" x2="6.22%" y2="19.419%" id="a"><stop stop-color="#F9B215" offset="0%"/><stop stop-color="#DE5F60" offset="100%"/></linearGradient><linearGradient x1="182.322%" y1="78.436%" x2="-20.985%" y2="37.277%" id="b"><stop stop-color="#F9B215" offset="0%"/><stop stop-color="#DE5F60" offset="100%"/></linearGradient><linearGradient x1="210.065%" y1="428.801%" x2="-4.054%" y2="-77.946%" id="c"><stop stop-color="#F9B215" offset="0%"/><stop stop-color="#DE5F60" offset="100%"/></linearGradient><linearGradient x1="601.314%" y1="510.151%" x2="-70.083%" y2="-50.342%" id="d"><stop stop-color="#F9B215" offset="0%"/><stop stop-color="#DE5F60" offset="100%"/></linearGradient><linearGradient x1="471.042%" y1="413.216%" x2="-174.122%" y2="-143.217%" id="e"><stop stop-color="#F9B215" offset="0%"/><stop stop-color="#DE5F60" offset="100%"/></linearGradient></defs><g fill-rule="nonzero" fill="none"><path d="M158.66 121.604l-54.048-54.257 16.64-16.707a8.483 8.483 0 009.932-1.528c3.31-3.33 3.31-8.721 0-12.051L96.75 2.495a8.464 8.464 0 00-11.025-.843 8.542 8.542 0 00-2.502 10.812L41.031 54.832a8.468 8.468 0 00-10.774 2.508 8.546 8.546 0 00.841 11.07l34.435 34.56a8.464 8.464 0 0011.028.845 8.542 8.542 0 002.498-10.816l14.31-14.365 54.059 54.257a7.929 7.929 0 0011.243 0c3.105-3.117 3.105-8.17 0-11.287h-.011zM87.43 5.187a4.687 4.687 0 016.638 0l34.442 34.566a4.73 4.73 0 010 6.665 4.688 4.688 0 01-5.997.535L86.896 11.207a4.734 4.734 0 01.533-6.02zm-1.744 10.414l32.443 32.568-41.533 41.695-32.443-32.569 41.533-41.694zm-10.833 84.674a4.687 4.687 0 01-6.639 0L33.782 65.709a4.724 4.724 0 01-.287-6.357 4.68 4.68 0 016.284-.843l35.62 35.751a4.731 4.731 0 01-.546 6.015zm81.123 29.927a4.147 4.147 0 01-5.878 0L96.05 75.932l5.878-5.9 54.06 54.269a4.178 4.178 0 010 5.9h-.012z" fill="url(#a)"/><path d="M62.104 134.215v-3.47c-.002-2.647-2.139-4.792-4.775-4.794H12.645c-2.637.002-4.773 2.147-4.776 4.793v3.47c-4.57.914-7.864 4.938-7.869 9.617V151h69.974v-7.17c-.006-4.678-3.3-8.702-7.87-9.615zm-49.46-4.456H57.33c.542 0 .982.441.982.985v3.283H11.663v-3.283c0-.544.44-.985.982-.985zm53.536 17.433H3.794v-3.361c.004-3.31 2.675-5.992 5.972-5.996h50.441c3.297.004 5.97 2.686 5.973 5.996v3.36z" fill="url(#b)"/><path d="M36.884 115.444v-12.068a1.9 1.9 0 00-1.897-1.904 1.9 1.9 0 00-1.897 1.904v12.068a1.9 1.9 0 001.897 1.904 1.9 1.9 0 001.897-1.904z" fill="url(#c)"/><path d="M20.078 119.869c.323.612.951.999 1.64 1.012.69.013 1.332-.35 1.677-.95.346-.599.34-1.34-.014-1.933l-5.904-10.501a1.896 1.896 0 00-1.633-.97 1.896 1.896 0 00-1.653.936 1.911 1.911 0 00-.02 1.904l5.907 10.502z" fill="url(#d)"/><path d="M47.729 120.555c.7 0 1.344-.387 1.674-1.007l5.674-10.628a1.91 1.91 0 00-.045-1.917 1.895 1.895 0 00-3.299.118l-5.676 10.63a1.91 1.91 0 00.044 1.877c.343.575.96.927 1.628.927z" fill="url(#e)"/></g></svg>