<?xml version="1.0" encoding="UTF-8"?>
<svg width="30px" height="30px" viewBox="0 0 30 30" version="1.1" xmlns="http://www.w3.org/2000/svg" >
    <!-- Generator: Sketch 52.5 (67469) - http://www.bohemiancoding.com/sketch -->
    <title>Shape</title>
    <desc>Created with Sketch.</desc>
    <g id="Dashboards" stroke="none" stroke-width="1" fill="none" fill-rule="evenodd" fill-opacity="0.5">
        <g id="Biddign-Single-Auction" transform="translate(-398.000000, -298.000000)" fill="#FFFFFF" fill-rule="nonzero">
            <path d="M413,298 C404.715729,298 398,304.715729 398,313 C398,321.284271 404.715729,328 413,328 C421.284271,328 428,321.284271 428,313 C427.989405,304.720121 421.279879,298.010595 413,298 Z M417.369533,315.697384 C417.829203,316.159016 417.829203,316.90686 417.369533,317.368492 C416.90929,317.82955 416.163695,317.82955 415.703452,317.368492 L413,314.656882 L410.296548,317.368492 C409.836305,317.82955 409.09071,317.82955 408.630467,317.368492 C408.170797,316.90686 408.170797,316.159016 408.630467,315.697384 L411.333919,312.985774 L408.630467,310.274164 C408.197665,309.808287 408.210436,309.082301 408.659354,308.632029 C409.108271,308.181756 409.832073,308.168947 410.296548,308.603055 L413,311.314665 L415.703452,308.603055 C416.167927,308.168947 416.891729,308.181756 417.340646,308.632029 C417.789564,309.082301 417.802335,309.808287 417.369533,310.274164 L414.666081,312.985774 L417.369533,315.697384 Z" id="Shape"></path>
        </g>
    </g>
</svg>