<svg width="135" height="151" xmlns="http://www.w3.org/2000/svg"><defs><linearGradient x1="15.4%" y1="6.546%" x2="83.743%" y2="96.46%" id="a"><stop stop-color="#3F4C9B" offset="0%"/><stop stop-color="#2F6EAC" offset="56%"/><stop stop-color="#2584B7" offset="100%"/></linearGradient><linearGradient x1="-2.182%" y1="-11.415%" x2="97.051%" y2="105.369%" id="b"><stop stop-color="#3F4C9B" offset="0%"/><stop stop-color="#2F6EAC" offset="56%"/><stop stop-color="#2584B7" offset="100%"/></linearGradient><linearGradient x1="24.837%" y1="-68.724%" x2="80.068%" y2="198.424%" id="c"><stop stop-color="#3F4C9B" offset="0%"/><stop stop-color="#2F6EAC" offset="56%"/><stop stop-color="#2584B7" offset="100%"/></linearGradient></defs><g fill-rule="nonzero" fill="none"><path d="M114.99 35.666c-.17-.17-.342-.333-.511-.5a8.434 8.434 0 00-1.631-11.77 8.423 8.423 0 00-11.774 1.552 66.63 66.63 0 00-26.244-8.612v-5.468a5.434 5.434 0 005.316-5.44A5.434 5.434 0 0074.816 0h-14.91a5.434 5.434 0 00-5.33 5.428 5.434 5.434 0 005.316 5.44v5.468C34.164 19.21 12.357 36.582 3.794 61.026c-8.563 24.445-2.369 51.637 15.936 69.954a67.336 67.336 0 0065.216 17.756c23.348-6.212 41.584-24.458 47.791-47.819a67.422 67.422 0 00-17.747-65.251zm-7.237-10.342a4.765 4.765 0 014.014 7.32 67.944 67.944 0 00-7.54-5.755 4.748 4.748 0 013.526-1.565zM58.156 5.433c0-.974.79-1.763 1.763-1.763h14.91a1.763 1.763 0 010 3.526H59.906a1.763 1.763 0 01-1.749-1.763zm5.417 5.435h7.58v5.166c-1.26-.07-2.527-.11-3.798-.11-1.27 0-2.54.04-3.8.11l.018-5.166zm48.824 117.515c-24.893 24.77-65.123 24.713-89.948-.124-24.824-24.838-24.88-65.09-.124-89.997A63.667 63.667 0 0183.913 21.63a63.708 63.708 0 0145.108 45.132 63.75 63.75 0 01-16.624 61.622z" fill="url(#a)"/><path d="M108.44 42.22C88.843 22.614 58.13 19.589 35.087 34.997c-23.044 15.408-32 44.958-21.39 70.577 10.609 25.618 37.828 40.17 65.01 34.757 27.182-5.414 46.756-29.286 46.752-57.017A57.763 57.763 0 00108.44 42.22zm-2.592 79.609c-18.36 18.372-47.134 21.21-68.726 6.777C15.53 114.174 7.134 86.491 17.068 62.487c9.935-24.004 35.432-37.645 60.9-32.58 25.47 5.065 43.815 27.425 43.82 53.406a54.119 54.119 0 01-15.94 38.516z" fill="url(#b)"/><path d="M67.428 40.911a.59.59 0 00-1.172 0l-5.544 43.336a6.187 6.187 0 006.13 6.967 6.185 6.185 0 006.128-6.967l-5.542-43.336z" fill="url(#c)"/></g></svg>