<svg id="Livello_1" data-name="Livello 1" xmlns="http://www.w3.org/2000/svg" width="80" height="80" viewBox="0 0 80 80">
  <defs>
    <style>
      .cls-1 {
        fill: #fff;
      }
    </style>
  </defs>
  <title>OVRlogo3</title>
  <path class="cls-1" d="M76.09,20.4a9,9,0,0,0-1.17-4.46l.06,0-.6-.84L74,14.55h0A9,9,0,0,0,70.52,12L43.51.7A8.91,8.91,0,0,0,40.82,0V0H39.18V0A8.91,8.91,0,0,0,36.49.7L9.48,12a9.13,9.13,0,0,0-3.86,3.06l-.6.84.06,0A9,9,0,0,0,3.91,20.4v39a9.07,9.07,0,0,0,1.15,4.42l0,0,.6.84h0l.38.52H6a9.16,9.16,0,0,0,3.42,2.54l27,11.5a9,9,0,0,0,2.74.69v0H40a8.9,8.9,0,0,0,3.56-.73l27-11.5a8.9,8.9,0,0,0,1.63-.9A9.28,9.28,0,0,0,74,65.23h0l.38-.52h0l.6-.84-.06,0a9,9,0,0,0,1.16-4.42ZM74.43,60c0,.06,0,.12,0,.18s0,.24,0,.36a1.18,1.18,0,0,1,0,.2l-.06.34,0,.2-.09.33-.06.19L74,62.1a1.22,1.22,0,0,0-.07.17c-.06.14-.13.28-.19.43s0,0,0,.06a3.75,3.75,0,0,1-.24.44l-8.52-3.57c.14-.16.28-.33.41-.51A7.4,7.4,0,0,0,66.57,55V24.9a7.37,7.37,0,0,0-1.29-4.18h0c-.12-.18-.26-.34-.39-.5l8.51-3.63c.09.15.17.3.25.45l0,.05a3.49,3.49,0,0,1,.2.44,1.22,1.22,0,0,1,.07.17,3.4,3.4,0,0,1,.12.34,1.46,1.46,0,0,1,.07.19l.09.33a1.6,1.6,0,0,0,0,.21l.06.33c0,.07,0,.14,0,.2s0,.25,0,.37,0,.12,0,.18,0,.36,0,.55v39C74.45,59.6,74.44,59.78,74.43,60ZM16.71,20.9l12.47,5.31a17.42,17.42,0,0,0,.15,27.47L16.71,59a5.25,5.25,0,0,1-.64-.76,5.76,5.76,0,0,1-1-3.25V24.9a5.74,5.74,0,0,1,1-3.25A5.16,5.16,0,0,1,16.71,20.9Zm47.22.75a5.74,5.74,0,0,1,1,3.25V55a5.76,5.76,0,0,1-1,3.25,5.25,5.25,0,0,1-.64.76L50.67,53.68a17.42,17.42,0,0,0,.15-27.47L63.29,20.9A5.16,5.16,0,0,1,63.93,21.65ZM40.82,49.55V30.47L49.07,27a15.78,15.78,0,0,1-.17,26Zm5-23-5,2.15V24.1a15.66,15.66,0,0,1,6.53,1.8Zm-6.69,2.15L32.65,25.9a15.66,15.66,0,0,1,6.53-1.8Zm0,1.79V49.55l-8.09,3.39a15.79,15.79,0,0,1-.16-26Zm0,20.87v4.33A15.5,15.5,0,0,1,32.86,54Zm1.64,0L47.14,54a15.5,15.5,0,0,1-6.32,1.69Zm8.42-26.25a17.33,17.33,0,0,0-8.42-2.63V10.73a5.48,5.48,0,0,1,1.18.34l19.7,8.72ZM39.18,22.46a17.33,17.33,0,0,0-8.42,2.63L18.3,19.79,38,11.07a5.48,5.48,0,0,1,1.18-.34ZM30.93,54.79a17.34,17.34,0,0,0,8.25,2.53V69.27a4.61,4.61,0,0,1-1.2-.36L18.31,60.08Zm9.89,2.53a17.37,17.37,0,0,0,8.25-2.53l12.62,5.29L42,68.91a4.61,4.61,0,0,1-1.2.36ZM69.89,13.54a4.85,4.85,0,0,1,.61.29l.15.08.55.34,0,0c.19.12.36.26.54.4a.69.69,0,0,0,.13.11l.46.44,0,0L63.57,19a6.8,6.8,0,0,0-1.19-.71L42.66,9.57a6.61,6.61,0,0,0-1.84-.5V1.7q.32,0,.63.09h0c.2,0,.41.09.61.15l.14,0c.21.07.42.14.63.23ZM37.13,2.22c.21-.09.42-.16.64-.23l.13,0c.2-.06.41-.11.61-.15h0q.31-.06.63-.09V9.07a6.61,6.61,0,0,0-1.84.5L17.62,18.28a7.28,7.28,0,0,0-1.2.71L7.63,15.24l0,0,.46-.44a.69.69,0,0,0,.13-.11c.18-.14.35-.28.54-.4l0,0,.55-.34.15-.08a4.85,4.85,0,0,1,.61-.29ZM5.55,59.42v-39a7.36,7.36,0,0,1,1-3.81l8.51,3.63c-.13.16-.27.32-.39.5a7.37,7.37,0,0,0-1.29,4.18V55a7.35,7.35,0,0,0,1.28,4.17,5,5,0,0,0,.4.51L6.59,63.2A7.36,7.36,0,0,1,5.55,59.42ZM37.09,77.76l-27-11.5a7.49,7.49,0,0,1-2.45-1.7l8.81-3.69a6.08,6.08,0,0,0,1.16.68L37.3,70.41a6.84,6.84,0,0,0,1.88.53V78.3A7.24,7.24,0,0,1,37.09,77.76Zm5.82,0c-.21.09-.42.17-.64.24l-.15,0q-.3.09-.6.15l-.05,0c-.22,0-.43.07-.65.09V70.94a6.51,6.51,0,0,0,1.88-.53l19.72-8.86a6.33,6.33,0,0,0,1.15-.68l8.81,3.69,0,0a4.47,4.47,0,0,1-.45.42l-.12.11-.53.41h0l-.55.34-.15.08c-.19.11-.4.21-.6.3Z"/>
</svg>
