<svg width="18px" height="20px" viewBox="0 0 18 20" version="1.1" xmlns="http://www.w3.org/2000/svg" >
    <!-- Generator: Sketch 52.5 (67469) - http://www.bohemiancoding.com/sketch -->
    <title>Group 7</title>
    <desc>Created with Sketch.</desc>
    <defs>
        <linearGradient x1="109.443841%" y1="100%" x2="0%" y2="0%" id="linearGradient-1">
            <stop stop-color="#EB663B" offset="0%"></stop>
            <stop stop-color="#F9B326" offset="100%"></stop>
        </linearGradient>
    </defs>
    <g id="Symbols" stroke="none" stroke-width="1" fill="none" fill-rule="evenodd">
        <g id="icons/ovr_token_icon" transform="translate(-1.000000, 0.000000)" stroke="url(#linearGradient-1)">
            <g id="Group-7" transform="translate(1.500000, 0.500000)">
                <path d="M17,4.74635088 L17,14.2080796 C17,14.6356499 16.8648435,15.0415035 16.6274351,15.3747306 C16.4190393,15.6670164 16.1324155,15.9034083 15.7896062,16.0504413 L10.1664585,18.4602859 L9.27980353,18.8401506 C9.03071928,18.9465982 8.76535964,19 8.5,19 C8.23464036,19 7.96928072,18.9465982 7.72019647,18.8401506 L6.4464702,18.2943844 L1.21035839,16.0504413 C0.867549118,15.9034083 0.580960706,15.6670164 0.372564935,15.3747306 C0.13515651,15.0415035 0,14.6356499 0,14.2080796 L0,4.74635088 C0,4.31628848 0.136571762,3.90901085 0.375749251,3.57507167 C0.585914086,3.28171785 0.875333,3.04496993 1.22136197,2.89900504 L1.43860306,2.80750998 L7.73116467,0.155577208 C7.97702922,0.051621728 8.2385323,0 8.5,0 C8.7614677,0 9.0229354,0.051621728 9.26883533,0.155577208 L13.2428613,1.83025727 L15.7786026,2.89900504 C16.124667,3.04496993 16.4140505,3.28171785 16.6242507,3.57507167 C16.8634282,3.90901085 17,4.31628848 17,4.74635088 Z" id="Stroke-1"></path>
                <path d="M14.4576495,4.96911472 C14.3035439,4.74484619 14.0913509,4.56377693 13.8377787,4.45231434 L11.9779884,3.63495738 L9.06384536,2.35418048 C8.88350443,2.2749229 8.69175221,2.23529412 8.5,2.23529412 C8.30824779,2.23529412 8.11653112,2.2749229 7.93615464,2.35418048 L3.32176598,4.38221275 L3.16225686,4.45231434 C2.90864909,4.56377693 2.69645611,4.74484619 2.54235047,4.96911472 C2.36684422,5.22459842 2.26666667,5.53611391 2.26666667,5.86473942 L2.26666667,13.1002275 C2.26666667,13.4272975 2.36588439,13.737505 2.54000422,13.9923877 C2.69265235,14.2158432 2.90281903,14.396771 3.15429385,14.5091174 L6.99417279,16.2249272 L7.92819163,16.6422844 C8.11084326,16.7239105 8.3054394,16.7647059 8.5,16.7647059 C8.6945606,16.7647059 8.88915674,16.7239105 9.07184392,16.6422844 L9.72193156,16.3517676 L13.8457062,14.5091174 C14.097181,14.396771 14.3073477,14.2158432 14.4599958,13.9923877 C14.6341156,13.737505 14.7333333,13.4272975 14.7333333,13.1002275 L14.7333333,5.86473942 C14.7333333,5.53611391 14.6331558,5.22459842 14.4576495,4.96911472 Z" id="Stroke-3"></path>
                <path d="M4.53333333,9.5 C4.53333333,7.33960678 6.30925829,5.58823529 8.50001751,5.58823529 C10.6907417,5.58823529 12.4666667,7.33960678 12.4666667,9.5 C12.4666667,11.6604278 10.6907417,13.4117647 8.50001751,13.4117647 C6.30925829,13.4117647 4.53333333,11.6604278 4.53333333,9.5 Z" id="Stroke-5"></path>
            </g>
        </g>
    </g>
</svg>