<?xml version="1.0" encoding="UTF-8"?>
<svg width="10px" height="17px" viewBox="0 0 10 17" version="1.1" xmlns="http://www.w3.org/2000/svg" xmlns:xlink="http://www.w3.org/1999/xlink">
    <!-- Generator: Sketch 52.5 (67469) - http://www.bohemiancoding.com/sketch -->
    <title>Path</title>
    <desc>Created with Sketch.</desc>
    <g id="Dashboards" stroke="none" stroke-width="1" fill="none" fill-rule="evenodd">
        <g id="Biddign-Single-Auction" transform="translate(-792.000000, -469.000000)" fill="#FFFFFF" stroke="#D4CDD9">
            <path d="M793.132554,484.641214 C793.210784,484.719949 793.317088,484.764519 793.428175,484.765159 C793.5396,484.7662 793.646532,484.721367 793.723796,484.641214 L800.694533,477.682613 C800.773611,477.604705 800.818124,477.498417 800.818124,477.387507 C800.818124,477.276596 800.773611,477.170308 800.694533,477.0924 L793.723796,470.132323 C793.61943,470.02095 793.462544,469.975232 793.314547,470.013063 C793.16655,470.050895 793.050984,470.16626 793.013086,470.313999 C792.975188,470.461739 793.020987,470.618352 793.132554,470.722535 L799.807671,477.387507 L793.132554,484.051002 C793.053844,484.129106 793.009585,484.23532 793.009585,484.346108 C793.009585,484.456896 793.053844,484.56311 793.132554,484.641214 Z" id="Path"></path>
        </g>
    </g>
</svg>